<svg width="206" height="49" viewBox="0 0 206 49" fill="none" xmlns="http://www.w3.org/2000/svg">
<path d="M36.1793 14.8248H46.4313C48.9455 14.8248 50.947 15.4595 52.436 16.7288C53.925 17.9737 54.6695 19.7189 54.6695 21.9646C54.6695 24.3079 53.5954 26.0898 51.4474 27.3103C51.301 27.3835 51.2033 27.4567 51.1545 27.5299C51.1057 27.5788 51.0813 27.6642 51.0813 27.7862C51.0813 27.9571 51.1789 28.0792 51.3742 28.1524C53.6931 29.0799 54.8525 30.9839 54.8525 33.8642C54.8525 36.2075 54.0958 38.0138 52.5825 39.2831C51.0935 40.5524 49.0431 41.187 46.4313 41.187H36.1793V14.8248ZM46.0651 26.1752C47.6762 26.1752 48.8966 25.8579 49.7266 25.2233C50.5809 24.5886 51.008 23.5634 51.008 22.1477C51.008 20.7319 50.5809 19.7067 49.7266 19.0721C48.8966 18.4374 47.6762 18.1201 46.0651 18.1201H39.8407V26.1752H46.0651ZM46.0651 37.8917C47.7738 37.8917 49.0553 37.5744 49.9096 36.9398C50.764 36.2807 51.1911 35.1945 51.1911 33.6811C51.1911 32.1677 50.764 31.0937 49.9096 30.4591C49.0553 29.8 47.7738 29.4705 46.0651 29.4705H39.8407V37.8917H46.0651ZM75.8971 41.187H72.6018V39.1C72.6018 38.9291 72.5164 38.8437 72.3455 38.8437C72.2723 38.8437 72.199 38.8803 72.1258 38.9536C72.077 39.0024 72.016 39.0634 71.9427 39.1366C70.5758 40.8697 68.5987 41.7362 66.0113 41.7362C63.6191 41.7362 61.7396 41.065 60.3727 39.7224C59.0058 38.3799 58.3223 36.4882 58.3223 34.0473V22.1477H61.6176V33.498C61.6176 35.2311 62.0569 36.5492 62.9357 37.4524C63.8144 38.3555 65.0837 38.8071 66.7435 38.8071C68.6231 38.8071 70.0632 38.2457 71.064 37.1228C72.0892 35.9756 72.6018 34.2791 72.6018 32.0335V22.1477H75.8971V41.187ZM83.7777 22.1477V41.187H80.4824V22.1477H83.7777ZM84.51 14.8248V19.2185H79.7501V14.8248H84.51ZM87.2732 31.6673C87.2732 29.4705 87.7126 27.6154 88.5913 26.102C89.4944 24.5886 90.6539 23.4658 92.0696 22.7335C93.4854 21.9768 94.9988 21.5985 96.6098 21.5985C99.3192 21.5985 101.418 22.4894 102.907 24.2713C103.029 24.4422 103.164 24.5276 103.31 24.5276C103.481 24.5276 103.566 24.4299 103.566 24.2347V14.8248H106.862V41.187H103.566V39.1C103.566 38.9047 103.481 38.8071 103.31 38.8071C103.164 38.8071 103.029 38.8925 102.907 39.0634C101.418 40.8453 99.3192 41.7362 96.6098 41.7362C94.9988 41.7362 93.4854 41.3701 92.0696 40.6378C90.6539 39.8811 89.4944 38.7461 88.5913 37.2327C87.7126 35.7193 87.2732 33.8642 87.2732 31.6673ZM90.5685 31.6673C90.5685 33.913 91.1665 35.6705 92.3626 36.9398C93.583 38.1847 95.1818 38.8071 97.159 38.8071C99.1362 38.8071 100.723 38.1847 101.919 36.9398C103.139 35.6705 103.75 33.913 103.75 31.6673C103.75 29.4217 103.139 27.6764 101.919 26.4315C100.723 25.1622 99.1362 24.5276 97.159 24.5276C95.1818 24.5276 93.583 25.1622 92.3626 26.4315C91.1665 27.6764 90.5685 29.4217 90.5685 31.6673ZM114.717 14.8248V41.187H111.421V14.8248H114.717ZM118.029 28.0059C118.029 25.2721 118.578 22.8677 119.677 20.7929C120.8 18.7181 122.386 17.1193 124.437 15.9965C126.487 14.8493 128.867 14.2756 131.576 14.2756C134.066 14.2756 136.177 14.776 137.911 15.7768C139.668 16.7532 140.986 18.0347 141.865 19.6213C142.744 21.2079 143.22 22.9044 143.293 24.7107H139.631C139.436 22.5382 138.667 20.8052 137.325 19.5115C135.982 18.2178 134.005 17.5709 131.393 17.5709C129.465 17.5709 127.768 18.0103 126.304 18.889C124.839 19.7433 123.704 20.9638 122.899 22.5504C122.093 24.137 121.69 25.9555 121.69 28.0059C121.69 30.0807 122.081 31.9114 122.862 33.498C123.668 35.0602 124.827 36.2807 126.34 37.1595C127.854 38.0138 129.66 38.441 131.759 38.441C134.225 38.441 136.055 37.8917 137.251 36.7933C138.448 35.6949 139.046 34.2303 139.046 32.3996H129.379V29.1044H142.707V31.704C142.707 34.8284 141.718 37.2815 139.741 39.0634C137.788 40.8453 135.067 41.7362 131.576 41.7362C128.818 41.7362 126.414 41.1748 124.363 40.052C122.313 38.9047 120.738 37.2937 119.64 35.2189C118.566 33.1441 118.029 30.7398 118.029 28.0059ZM163.971 41.187H160.676V39.1C160.676 38.9291 160.59 38.8437 160.42 38.8437C160.346 38.8437 160.273 38.8803 160.2 38.9536C160.151 39.0024 160.09 39.0634 160.017 39.1366C158.65 40.8697 156.673 41.7362 154.085 41.7362C151.693 41.7362 149.814 41.065 148.447 39.7224C147.08 38.3799 146.396 36.4882 146.396 34.0473V22.1477H149.692V33.498C149.692 35.2311 150.131 36.5492 151.01 37.4524C151.889 38.3555 153.158 38.8071 154.818 38.8071C156.697 38.8071 158.137 38.2457 159.138 37.1228C160.163 35.9756 160.676 34.2791 160.676 32.0335V22.1477H163.971V41.187ZM171.852 22.1477V41.187H168.557V22.1477H171.852ZM172.584 14.8248V19.2185H167.824V14.8248H172.584ZM175.347 31.6673C175.347 29.4705 175.787 27.6154 176.665 26.102C177.569 24.5886 178.728 23.4658 180.144 22.7335C181.56 21.9768 183.073 21.5985 184.684 21.5985C187.393 21.5985 189.493 22.4894 190.982 24.2713C191.104 24.4422 191.238 24.5276 191.384 24.5276C191.555 24.5276 191.641 24.4299 191.641 24.2347V14.8248H194.936V41.187H191.641V39.1C191.641 38.9047 191.555 38.8071 191.384 38.8071C191.238 38.8071 191.104 38.8925 190.982 39.0634C189.493 40.8453 187.393 41.7362 184.684 41.7362C183.073 41.7362 181.56 41.3701 180.144 40.6378C178.728 39.8811 177.569 38.7461 176.665 37.2327C175.787 35.7193 175.347 33.8642 175.347 31.6673ZM178.643 31.6673C178.643 33.913 179.241 35.6705 180.437 36.9398C181.657 38.1847 183.256 38.8071 185.233 38.8071C187.21 38.8071 188.797 38.1847 189.993 36.9398C191.213 35.6705 191.824 33.913 191.824 31.6673C191.824 29.4217 191.213 27.6764 189.993 26.4315C188.797 25.1622 187.21 24.5276 185.233 24.5276C183.256 24.5276 181.657 25.1622 180.437 26.4315C179.241 27.6764 178.643 29.4217 178.643 31.6673ZM202.791 14.8248V41.187H199.495V14.8248H202.791Z" fill="#182232"/>
<path fill-rule="evenodd" clip-rule="evenodd" d="M14.8867 10.1643V19.4598H17.2209V24.8329H22.9973V19.4598H27.0062V30.206L20.7013 42.0233L13.5031 41.9146L6.30486 42.0233L0 30.206V19.4598H3.99065V24.8329H9.78528V19.4598H12.3588V1.26395C12.3588 0.565889 12.9247 0 13.6228 0C14.1263 0 14.561 0.2944 14.7642 0.72045C15.4031 0.965338 16.0466 1.61238 16.7119 2.28137C17.5022 3.07602 18.3232 3.90163 19.2039 4.12095C20.0931 4.34242 20.7524 4.10563 21.4951 3.83887C22.2743 3.559 23.1453 3.24616 24.4701 3.39486C25.4635 3.51174 25.9901 4.16046 26.5791 4.88586C27.3621 5.85033 28.2552 6.95035 30.5016 7.11611L30.4874 7.12612C29.0491 8.14179 27.084 9.5295 24.0327 9.2581C23.0785 9.17577 22.4062 8.86812 21.7616 8.57316C20.8429 8.15279 19.9805 7.75817 18.4385 8.07819C16.7695 8.41302 15.9262 9.20317 15.2849 9.80403C15.1447 9.9354 15.0141 10.0577 14.8867 10.1643Z" fill="#283549"/>
</svg>
