<svg width="405" height="72" viewBox="0 0 405 72" fill="none" xmlns="http://www.w3.org/2000/svg">
<path fill-rule="evenodd" clip-rule="evenodd" d="M204.664 62.5265C201.996 62.5265 199.551 61.9709 197.328 60.8596C196.074 60.2184 194.985 59.4565 194.059 58.5739C193.475 58.0161 192.29 58.3947 192.29 59.1935V60.3859C192.29 60.9277 191.841 61.3669 191.287 61.3669H186.477C185.923 61.3669 185.474 60.9277 185.474 60.3859V10.4549C185.474 9.91309 185.923 9.47388 186.477 9.47388H191.265C191.818 9.47388 192.268 9.91309 192.268 10.4549V28.0287C192.268 28.8276 193.455 29.2083 194.041 28.6522C194.974 27.768 196.072 27.0048 197.328 26.3626C199.551 25.2514 201.996 24.6957 204.664 24.6957C209.455 24.6957 213.505 26.5317 216.815 30.2037C220.223 33.9239 221.927 38.3931 221.927 43.6111C221.927 48.8775 220.223 53.3466 216.815 57.0186C213.505 60.6905 209.455 62.5265 204.664 62.5265ZM203.552 56.4388C206.812 56.4388 209.554 55.2309 211.777 52.8152C213.999 50.4477 215.111 47.3797 215.111 43.6111C215.111 39.8909 213.999 36.8228 211.777 34.4071C209.554 31.9913 206.812 30.7834 203.552 30.7834C200.243 30.7834 197.477 31.9913 195.254 34.4071C193.08 36.8228 191.994 39.8909 191.994 43.6111C191.994 47.3797 193.08 50.4719 195.254 52.8876C197.477 55.2551 200.243 56.4388 203.552 56.4388ZM162.05 62.5265C156.716 62.5265 152.32 60.7388 148.862 57.1635C145.404 53.5882 143.675 49.0707 143.675 43.6111C143.675 38.1998 145.355 33.7065 148.714 30.1312C152.073 26.5075 156.37 24.6957 161.606 24.6957C166.99 24.6957 171.263 26.4109 174.424 29.8413C177.831 33.43 179.46 38.8274 179.246 43.7365C179.219 44.366 178.675 44.8431 178.031 44.8431H151.865C151.194 44.8431 150.65 45.3859 150.72 46.0384C151.032 48.9694 152.191 51.3733 154.197 53.25C156.469 55.3758 159.185 56.4388 162.347 56.4388C166.38 56.4388 169.605 54.6086 172.022 50.9482C172.346 50.4589 172.989 50.2601 173.524 50.5155L177.597 52.4588C178.171 52.7328 178.401 53.4199 178.068 53.9533C176.494 56.4783 174.415 58.4905 171.831 59.9899C168.966 61.681 165.706 62.5265 162.05 62.5265ZM151.553 37.9357C151.312 38.6427 151.882 39.3352 152.643 39.3352H170.691C171.385 39.3352 171.94 38.7534 171.799 38.0882C171.395 36.178 170.417 34.5644 168.867 33.2475C167.039 31.6048 164.57 30.7834 161.458 30.7834C158.889 30.7834 156.666 31.5565 154.789 33.1026C153.301 34.3613 152.223 35.9724 151.553 37.9357ZM141.586 27.2175C141.807 26.5445 141.294 25.8553 140.571 25.8553H135.867C135.394 25.8553 134.978 26.1597 134.845 26.6031L127.906 49.6418C127.628 50.5658 126.297 50.5851 125.991 49.6695L118.269 26.5736C118.125 26.1451 117.717 25.8553 117.256 25.8553H111.76C111.3 25.8553 110.892 26.1439 110.748 26.5712L102.957 49.6848C102.649 50.5984 101.32 50.5776 101.042 49.6548L94.0995 26.6031C93.9659 26.1597 93.5498 25.8553 93.0773 25.8553H88.2246C87.5017 25.8553 86.9885 26.5445 87.2104 27.2175L98.2299 60.6445C98.3718 61.0751 98.7815 61.3669 99.2441 61.3669H104.582C105.045 61.3669 105.455 61.0748 105.597 60.6439L113.373 37.0071C113.671 36.101 114.981 36.0994 115.282 37.0049L123.124 60.6463C123.267 61.076 123.676 61.3669 124.138 61.3669H129.552C130.014 61.3669 130.424 61.0751 130.566 60.6445L141.586 27.2175ZM352.78 59.2652C354.756 61.0529 357.226 61.9467 360.19 61.9467C362.151 61.9467 363.909 61.7318 365.465 61.3021C365.995 61.1555 366.265 60.5942 366.081 60.0858L364.626 56.0621C364.431 55.5228 363.807 55.2623 363.25 55.4348C363.098 55.4817 362.943 55.5264 362.783 55.5691C362.289 55.6657 361.77 55.7141 361.227 55.7141C360.041 55.7141 358.979 55.3034 358.041 54.482C357.102 53.6124 356.633 51.9938 356.633 49.6264V32.924C356.633 32.3822 357.082 31.943 357.636 31.943H364.521C365.075 31.943 365.524 31.5038 365.524 30.962V26.8363C365.524 26.2945 365.075 25.8553 364.521 25.8553H357.636C357.082 25.8553 356.633 25.4161 356.633 24.8743V10.4549C356.633 9.91309 356.184 9.47388 355.63 9.47388H350.819C350.266 9.47388 349.816 9.91309 349.816 10.4549V24.8743C349.816 25.4161 349.367 25.8553 348.814 25.8553H344.447C343.894 25.8553 343.445 26.2945 343.445 26.8363V30.962C343.445 31.5038 343.894 31.943 344.447 31.943H348.814C349.367 31.943 349.816 32.3822 349.816 32.924V51.8005C349.866 54.9893 350.854 57.4776 352.78 59.2652ZM255.43 58.1781C258.74 55.2792 260.394 51.6556 260.394 47.3072C260.394 44.6499 259.629 42.2583 258.098 40.1324C257.393 39.1216 256.381 37.8368 253.411 36.2086C252.784 35.8645 252.768 34.948 253.361 34.5503C256.914 32.1687 258.69 28.5627 258.69 24.3334C258.69 20.3232 257.184 17.0619 254.171 14.5495C251.108 11.9405 247.329 10.636 242.834 10.636C239.229 10.636 236.092 11.5782 233.425 13.4625C231.048 15.1415 229.279 17.2809 228.118 19.8806C227.877 20.4193 228.154 21.0346 228.707 21.2639L232.919 23.0087C233.516 23.2558 234.197 22.9588 234.465 22.3818C236.124 18.803 238.914 17.0136 242.834 17.0136C245.502 17.0136 247.65 17.69 249.281 19.0429C250.911 20.3957 251.726 22.1592 251.726 24.3334C251.726 26.7008 250.861 28.6334 249.132 30.1312C247.403 31.5806 245.181 32.3054 242.464 32.3054H239.739C239.116 32.3054 238.611 32.7995 238.611 33.409V37.4344C238.611 38.0439 239.116 38.538 239.739 38.538H242.983C245.848 38.538 248.293 39.3835 250.318 41.0746C252.392 42.7656 253.43 44.8432 253.43 47.3072C253.43 49.7713 252.442 51.873 250.466 53.6124C248.441 55.3034 246.045 56.1489 243.279 56.1489C240.76 56.1489 238.586 55.4242 236.759 53.9747C235.245 52.6998 234.089 50.9698 233.292 48.7848C233.064 48.161 232.355 47.8216 231.73 48.0764L227.609 49.756C227.081 49.9713 226.797 50.5411 226.982 51.0708C228.135 54.3642 230.134 57.0715 232.98 59.1928C236.043 61.4153 239.476 62.5265 243.279 62.5265C248.12 62.5265 252.17 61.077 255.43 58.1781ZM272.49 50.496C272.49 48.5634 273.404 46.9449 275.232 45.6404C277.109 44.3358 279.43 43.6836 282.196 43.6836C285.745 43.6836 288.563 44.3986 290.649 45.8287C290.932 46.0223 291.091 46.3448 291.073 46.6818C290.937 49.2611 289.806 51.523 287.679 53.4674C285.456 55.545 282.913 56.5837 280.048 56.5837C278.022 56.5837 276.244 56.004 274.713 54.8444C273.231 53.6848 272.49 52.2354 272.49 50.496ZM293.236 28.6817C290.322 26.0244 286.345 24.6957 281.307 24.6957C275.233 24.6957 270.551 26.7394 267.263 30.8266C266.909 31.2668 267.042 31.9028 267.527 32.2012L271.826 34.8488C272.28 35.1287 272.876 35.0055 273.212 34.5955C275.37 31.9575 278.192 30.6385 281.678 30.6385C284.197 30.6385 286.395 31.4599 288.272 33.1026C290.161 34.7071 290.829 36.6356 291.021 38.8137C291.087 39.5624 290.251 40.0466 289.542 39.7572C287.197 38.7995 284.377 38.3206 281.085 38.3206C276.343 38.3206 272.54 39.4077 269.675 41.5819C266.859 43.7561 265.451 46.6791 265.451 50.3511C265.451 53.8298 266.785 56.7287 269.452 59.0478C272.169 61.3669 275.528 62.5265 279.529 62.5265C284.222 62.5265 287.976 60.4973 290.791 56.4388V60.3859C290.791 60.9277 291.24 61.3669 291.794 61.3669H296.605C297.159 61.3669 297.608 60.9277 297.608 60.3859V39.4802C297.608 34.8902 296.15 31.2907 293.236 28.6817ZM337.156 60.3246C337.156 60.9003 336.679 61.3669 336.09 61.3669H331.405C330.816 61.3669 330.339 60.9003 330.339 60.3246V59.1603C330.339 58.4093 329.177 58.0491 328.63 58.5761C327.771 59.4033 326.736 60.1403 325.523 60.7872C323.399 61.9467 321.177 62.5265 318.855 62.5265C314.409 62.5265 310.976 61.2945 308.556 58.8304C306.185 56.318 305 52.7668 305 48.1769V26.8976C305 26.322 305.477 25.8553 306.065 25.8553H310.75C311.339 25.8553 311.816 26.322 311.816 26.8976V47.7421C311.964 53.5399 314.953 56.4388 320.781 56.4388C323.498 56.4388 325.77 55.3759 327.598 53.25C329.426 51.0758 330.339 48.4909 330.339 45.4954V26.8976C330.339 26.322 330.816 25.8553 331.405 25.8553H336.09C336.679 25.8553 337.156 26.322 337.156 26.8976V60.3246ZM372.37 10.4549C372.37 9.91309 372.819 9.47388 373.373 9.47388H378.184C378.738 9.47388 379.187 9.91309 379.187 10.4549V28.0619C379.187 28.8129 380.345 29.17 380.888 28.6397C381.734 27.8151 382.747 27.0802 383.929 26.4351C386.102 25.2755 388.35 24.6957 390.671 24.6957C395.117 24.6957 398.525 25.9519 400.896 28.4643C403.316 30.9284 404.527 34.4554 404.527 39.0453V60.3859C404.527 60.9277 404.078 61.3669 403.524 61.3669H398.713C398.159 61.3669 397.71 60.9277 397.71 60.3859V40.3498C397.71 33.9722 394.82 30.7834 389.041 30.7834C386.275 30.7834 383.929 31.9188 382.002 34.1897C380.125 36.4122 379.187 39.0212 379.187 42.0167V60.3859C379.187 60.9277 378.738 61.3669 378.184 61.3669H373.373C372.819 61.3669 372.37 60.9277 372.37 60.3859V10.4549Z" fill="white"/>
<path d="M60.4187 55.7378C60.8154 57.2105 62.9165 57.2105 63.3133 55.7378L74.7355 13.3428C75.2614 11.3908 73.7824 9.47388 71.7504 9.47388H64.708C63.3093 9.47388 62.0849 10.4082 61.7229 11.7519L55.2817 35.6591C55.1924 35.9907 55.1924 36.3399 55.2817 36.6715L60.4187 55.7378Z" fill="white"/>
<path d="M20.5001 35.6281C20.5895 35.9597 20.5895 36.3089 20.5001 36.6405L15.3632 55.7068C14.9665 57.1795 12.8654 57.1795 12.4686 55.7068L1.05476 13.3428C0.528834 11.3908 2.00782 9.47388 4.03984 9.47388H11.0823C12.481 9.47388 13.7053 10.4082 14.0673 11.7519L20.5001 35.6281Z" fill="white"/>
<path d="M30.1287 65.0568C29.7791 66.3583 28.5967 67.2634 27.2459 67.2634H20.0391C18.0767 67.2634 16.6484 65.4066 17.1563 63.5157L31.0246 11.8873C31.407 10.4638 32.7002 9.47388 34.1777 9.47388H42.5598C44.0372 9.47388 45.3305 10.4638 45.7129 11.8873L59.5812 63.5157C60.0891 65.4066 58.6608 67.2634 56.6984 67.2634H49.4916C48.1408 67.2634 46.9584 66.3583 46.6087 65.0568L39.7651 39.5796C39.3823 38.1545 37.3552 38.1545 36.9724 39.5796L30.1287 65.0568Z" fill="white"/>
<path d="M35.8377 59.6845C35.322 59.6845 34.9467 59.2217 35.0802 58.7504L37.6112 49.8134C37.8189 49.0801 38.9187 49.0801 39.1264 49.8134L41.6574 58.7504C41.7909 59.2217 41.4155 59.6845 40.8998 59.6845H35.8377Z" fill="white"/>
</svg>
